#!OML:ASF H:\Not Pregnant\Project 1\Capture day 1\Session 1\non-pregnant.ASF
:FULLY-SPECIFIED
:DEGREES
430
root -4.7845 16.2177 34.609 -182.873 -81.1465 -167.649
lowerback -2.99043 1.26099 -0.170122
upperback -7.64894 1.44407 0.531126
thorax -6.28322 0.63231 0.623645
lowerneck 6.90532 -6.44289 -31.5909
upperneck -5.06584 -12.3639 41.3739
head 2.82041 -7.61573 21.4775
rclavicle 1.09083e-014 4.47266e-015
rhumerus -48.9527 -6.19789 -79.684
rradius 34.3422
rwrist 11.1914
rhand -13.4718 -2.77266
rfingers 7.12502
rthumb 12.6384 -32.3703
lclavicle 1.09083e-014 4.47266e-015
lhumerus -47.3446 -3.18064 87.6284
lradius 42.5038
lwrist 51.7374
lhand -14.2909 -11.4229
lfingers 7.12502
lthumb 11.8486 18.2219
rfemur -15.7999 -9.45737 21.5603
rtibia 17.9874
rfoot -16.1888 17.5425
rtoes -9.15976
lfemur -14.671 -0.0376345 -16.8706
ltibia 14.9628
lfoot -10.9839 2.72221
ltoes -20.4115
431
root -4.78754 16.2185 34.6109 -182.943 -81.1137 -167.566
lowerback -3.00025 1.27575 -0.154085
upperback -7.65198 1.46329 0.523507
thorax -6.28045 0.640531 0.606448
lowerneck 7.00275 -6.43882 -31.5494
upperneck -5.22378 -12.3582 41.4575
head 2.76564 -7.63214 21.529
rclavicle 3.73964e-015 1.98785e-016
rhumerus -48.8227 -5.88599 -79.8725
rradius 34.6753
rwrist 10.8969
rhand -13.3854 -2.63068
rfingers 7.12502
rthumb 12.7217 -32.2232
lclavicle 3.73964e-015 1.98785e-016
lhumerus -47.27 -3.1441 87.7372
lradius 42.1274
lwrist 51.7697
lhand -14.0996 -11.3288
lfingers 7.12502
lthumb 12.0331 18.3053
rfemur -15.7763 -9.491 21.5794
rtibia 17.9228
rfoot -16.1537 17.628
rtoes -9.09509
lfemur -14.6941 0.00937235 -16.8651
ltibia 14.9959
lfoot -10.9112 2.68456
ltoes -20.4587
432
root -4.79101 16.2194 34.6131 -183.015 -81.0798 -167.479
lowerback -3.01954 1.29 -0.129967
upperback -7.65551 1.48176 0.517822
thorax -6.27259 0.64789 0.586964
lowerneck 7.09326 -6.43417 -31.5368
upperneck -5.35992 -12.3597 41.5505
head 2.72461 -7.65206 21.5936
rclavicle 1.29831e-014 -3.8763e-015
rhumerus -48.6921 -5.55842 -80.0606
rradius 34.9954
rwrist 10.5778
rhand -13.3463 -2.54969
rfingers 7.12502
rthumb 12.7593 -32.1398
lclavicle 1.29831e-014 -3.8763e-015
lhumerus -47.188 -3.03444 87.8093
lradius 41.7149
lwrist 51.7236
lhand -13.8559 -11.2532
lfingers 7.12502
lthumb 12.2681 18.367
rfemur -15.7513 -9.50461 21.597
rtibia 17.8564
rfoot -16.1186 17.6915
rtoes -9.05322
lfemur -14.7142 0.0581003 -16.8596
ltibia 15.0218
lfoot -10.8385 2.65284
ltoes -20.5325
433
root -4.79501 16.2205 34.6158 -183.157 -81.0312 -167.315
lowerback -3.05109 1.29915 -0.0861603
upperback -7.66009 1.49363 0.522748
thorax -6.25848 0.651009 0.567954
lowerneck 7.1557 -6.42544 -31.5428
upperneck -5.45934 -12.3579 41.641
head 2.6983 -7.66709 21.6615
rclavicle 6.54747e-015 -4.57205e-015
rhumerus -48.5572 -5.18489 -80.2532
rradius 35.3033
rwrist 10.2613
rhand -13.3275 -2.5238
rfingers 7.12502
rthumb 12.7775 -32.1128
lclavicle 6.54747e-015 -4.57205e-015
lhumerus -47.1035 -2.84171 87.8481
lradius 41.2634
lwrist 51.5588
lhand -13.5869 -11.2188
lfingers 7.12502
lthumb 12.5274 18.3857
rfemur -15.7283 -9.48182 21.626
rtibia 17.7873
rfoot -16.0763 17.7329
rtoes -9.00859
lfemur -14.7314 0.107232 -16.8391
ltibia 15.0404
lfoot -10.767 2.64233
ltoes -20.615
434
root -4.79947 16.2217 34.6187 -183.234 -80.9861 -167.22
lowerback -3.08666 1.30605 -0.0522793
upperback -7.66418 1.5025 0.53162
thorax -6.24191 0.653342 0.558758
lowerneck 7.21381 -6.41667 -31.5696
upperneck -5.54298 -12.3607 41.7307
head 2.68058 -7.68355 21.7338
rclavicle 4.96962e-015 3.57812e-015
rhumerus -48.4275 -4.82518 -80.4208
rradius 35.5969
rwrist 9.98132
rhand -13.3609 -2.53897
rfingers 7.12502
rthumb 12.7453 -32.13
lclavicle 4.96962e-015 3.57812e-015
lhumerus -47.0218 -2.60362 87.8831
lradius 40.809
lwrist 51.3386
lhand -13.3929 -11.1746
lfingers 7.12502
lthumb 12.7144 18.4183
rfemur -15.7022 -9.45022 21.64
rtibia 17.7214
rfoot -16.0337 17.7601
rtoes -8.96276
lfemur -14.738 0.154371 -16.8322
ltibia 15.0469
lfoot -10.6973 2.63787
ltoes -20.7125
435
root -4.80454 16.2229 34.6218 -183.181 -80.9468 -167.258
lowerback -3.12959 1.30523 -0.0381966
upperback -7.66686 1.50079 0.541085
thorax -6.22008 0.65159 0.56165
lowerneck 7.26466 -6.40644 -31.5894
upperneck -5.61421 -12.3576 41.7993
head 2.66149 -7.69421 21.7907
rclavicle -2.59662e-015 1.19271e-015
rhumerus -48.3005 -4.47071 -80.5759
rradius 35.873
rwrist 9.74376
rhand -13.4015 -2.54184
rfingers 7.12502
rthumb 12.7061 -32.1353
lclavicle -2.59662e-015 1.19271e-015
lhumerus -46.9497 -2.3249 87.9109
lradius 40.3619
lwrist 51.0748
lhand -13.2895 -11.1366
lfingers 7.12502
lthumb 12.8141 18.4501
rfemur -15.6788 -9.41606 21.6274
rtibia 17.6694
rfoot -15.9964 17.7796
rtoes -8.90362
lfemur -14.7283 0.206248 -16.8512
ltibia 15.0294
lfoot -10.6281 2.62597
ltoes -20.7951
436
root -4.81017 16.224 34.6249 -183.048 -80.9117 -167.381
lowerback -3.17547 1.30439 -0.0308354
upperback -7.66909 1.49881 0.546666
thorax -6.19617 0.649973 0.564319
lowerneck 7.3211 -6.39572 -31.6123
upperneck -5.68181 -12.3553 41.861
head 2.6419 -7.70498 21.8443
rclavicle -8.90804e-015 1.88845e-015
rhumerus -48.18 -4.16644 -80.6997
rradius 36.1274
rwrist 9.57801
rhand -13.4045 -2.50222
rfingers 7.12502
rthumb 12.7033 -32.0958
lclavicle -8.90804e-015 1.88845e-015
lhumerus -46.8872 -2.02729 87.9318
lradius 39.9196
lwrist 50.7902
lhand -13.2376 -11.1245
lfingers 7.12502
lthumb 12.8641 18.459
rfemur -15.659 -9.3945 21.5984
rtibia 17.6358
rfoot -15.973 17.8025
rtoes -8.8492
lfemur -14.6977 0.255587 -16.8869
ltibia 14.985
lfoot -10.5573 2.6144
ltoes -20.876
